<?xml version="1.0" encoding="UTF-8"?>
<svg xmlns="http://www.w3.org/2000/svg" xmlns:xlink="http://www.w3.org/1999/xlink" xmlns:xodm="http://www.corel.com/coreldraw/odm/2003" xml:space="preserve" width="350px" height="91px" version="1.1" style="shape-rendering:geometricPrecision; text-rendering:geometricPrecision; image-rendering:optimizeQuality; fill-rule:evenodd; clip-rule:evenodd" viewBox="0 0 350 90.58">
 <defs>
  <style type="text/css">
   
    .fil1 {fill:#3EB311;fill-rule:nonzero}
    .fil0 {fill:#00938A;fill-rule:nonzero}
   
  </style>
 </defs>
 <g id="Ebene_x0020_1">
  <metadata id="CorelCorpID_0Corel-Layer"></metadata>
  <g id="_1495902785696">
   <g>
    <path class="fil0" d="M199.53 79.39c0,-1.84 -0.77,-3.5 -3.9,-4.69 -1.54,-0.6 -2.67,-1.34 -2.67,-2.89 0,-1.37 0.92,-2.53 2.67,-2.53 1.25,0 2.2,0.54 2.68,0.9l0.68 -1.58c-0.83,-0.57 -2.11,-1.1 -3.74,-1.1 -2.92,0 -4.79,2.02 -4.79,4.4 0,1.67 0.62,3.33 3.75,4.49 1.75,0.66 2.64,1.4 2.64,3.06 0,1.55 -1.19,2.77 -2.97,2.77 -1.43,0 -2.56,-0.48 -3.12,-0.95l-0.72 1.72c0.86,0.66 2.38,1.1 4.11,1.1 3.27,0 5.38,-2.26 5.38,-4.7zm11.69 3.69l-0.66 -1.63c-0.59,0.41 -1.34,0.77 -2.44,0.77 -2.58,0 -3.95,-2.65 -3.95,-6.48 0,-3.75 1.13,-6.4 4.04,-6.4 1.19,0 1.91,0.42 2.38,0.78l0.63 -1.52c-0.51,-0.45 -1.58,-1.07 -3.54,-1.07 -3.57,0 -6.16,3.03 -6.16,8.3 0,5.17 2.59,8.32 6.1,8.32 1.78,0 2.97,-0.5 3.6,-1.07zm13.88 0.78l0 -11.45c0,-2.26 -1.25,-4.73 -5.32,-4.73 -1.19,0 -2.35,0.3 -3.69,0.98l0 -8.15 -2.61 0 0 23.35 2.61 0 0 -13.71c0.98,-0.6 1.94,-0.81 3.13,-0.81 2.55,0 3.27,1.49 3.27,3.16l0 11.36 2.61 0zm23.02 -16.03l-2.38 0 -2.92 11.48c-0.23,0.95 -0.32,1.93 -0.32,1.93l-0.06 0c0,0 -0.12,-0.98 -0.36,-1.9l-3.15 -11.51 -2.26 0 -3.24 11.51c-0.3,1.1 -0.39,1.9 -0.39,1.9l-0.06 0c0,0 -0.06,-0.8 -0.33,-1.9l-2.79 -11.51 -2.68 0 4.55 16.03 2.26 0 3.3 -11.45c0.3,-0.99 0.39,-1.88 0.39,-1.88l0.03 0c0,0 0.06,0.89 0.33,1.88l3.24 11.45 2.26 0 4.58 -16.03zm13.76 7.55c0.06,-5.35 -2.26,-7.85 -6.1,-7.85 -3.77,0 -6.45,2.82 -6.45,8.27 0,5.71 2.94,8.35 7.14,8.35 2.17,0 3.86,-0.5 4.84,-1.1l-0.68 -1.72c-0.83,0.47 -2.14,0.92 -3.95,0.92 -2.89,0 -4.58,-1.78 -4.88,-5.41l10.08 -1.46zm-2.5 -1.1l-7.67 1.16c-0.06,-4.34 1.66,-6.22 3.98,-6.22 2.29,0 3.69,1.43 3.69,5.06zm8.21 -10.97c0,-0.81 -0.68,-1.46 -1.52,-1.46 -0.86,0 -1.54,0.65 -1.54,1.46 0,0.77 0.68,1.42 1.54,1.42 0.84,0 1.52,-0.65 1.52,-1.42zm-0.21 20.55l0 -16.03 -2.62 0 0 16.03 2.62 0zm12.58 0l0 -1.64 -6.84 0 6.6 -14.39 -9.57 0 0 1.63 6.24 0 -6.75 14.4 10.32 0zm13.74 -8.48c0.06,-5.35 -2.26,-7.85 -6.1,-7.85 -3.77,0 -6.45,2.82 -6.45,8.27 0,5.71 2.94,8.35 7.14,8.35 2.17,0 3.86,-0.5 4.84,-1.1l-0.68 -1.72c-0.83,0.47 -2.14,0.92 -3.96,0.92 -2.88,0 -4.58,-1.78 -4.87,-5.41l10.08 -1.46zm-2.5 -1.1l-7.67 1.16c-0.06,-4.34 1.66,-6.22 3.98,-6.22 2.29,0 3.69,1.43 3.69,5.06zm12.1 -6.72c-3.8,-0.09 -5.32,0.33 -6.9,1.13l0 15.17 2.62 0 0 -14.01c0.86,-0.57 2.35,-0.69 3.66,-0.3l0.62 -1.99z"></path>
    <path class="fil0" d="M59.47 51.9l135.6 0c0.85,0.94 1.81,1.79 2.9,2.57l-138.5 0 0 -2.57zm185.92 0l8.02 0 -1.03 2.57 -6.99 0 0 -2.57zm46.29 0l53.71 0 0 2.57 -56.57 0c1.05,-0.79 2.01,-1.65 2.86,-2.57zm-259.52 -39.63l195.32 0 0 2.56 -195.32 0 0 -2.56zm213.12 0l8.58 0c0.03,0.86 0.11,1.71 0.24,2.56l-8.71 0c-0.01,-0.88 -0.05,-1.74 -0.11,-2.56zm27.6 0l45.2 0 0 2.56 -43.87 0c-0.62,-0.76 -1.07,-1.61 -1.33,-2.56zm-260.37 18.04l179.82 0c-0.38,0.81 -0.7,1.67 -0.96,2.57l-178.86 0 0 -2.57zm198.05 0l16.92 0 0 2.57 -18.22 0c0.33,-0.95 0.77,-1.81 1.3,-2.57zm34.83 0l24.37 0c1.89,0.82 3.37,1.65 4.49,2.57l-28.86 0 0 -2.57zm49.65 0l3.4 0 0 2.57 -2.4 0c-0.26,-0.88 -0.59,-1.73 -1,-2.57zm-284.81 -30.31l185.74 0 1.96 5.13 -187.7 0 0 -5.13zm231.05 0l16.11 0c-1.09,1.57 -1.95,3.29 -2.55,5.13l-10.96 0c-0.67,-1.93 -1.54,-3.64 -2.6,-5.13zm51.9 0l13.65 0 0 5.13 -15.84 0 2.19 -5.13zm-5.58 5.13l-12.8 0c1.27,-1.09 3.08,-1.76 5.42,-1.76 2.79,0 5.37,0.78 7.38,1.76zm-62.92 0l-21.08 0c3.67,-1.2 7.98,-2.12 12.23,-2.12 3.74,0 6.8,0.56 8.85,2.12zm-171.28 34.06l137.17 0c0.03,1.83 0.23,3.54 0.6,5.13l-137.77 0 0 -5.13zm155.11 0l18.97 0 0 5.13 -17.61 0c-0.78,-1.38 -1.24,-3.09 -1.36,-5.13zm36.88 0l31.76 0c0,2.06 -0.8,3.85 -2.21,5.13l-15.03 0c-1.07,-0.52 -2,-1.11 -2.75,-1.7l-0.68 1.7 -11.09 0 0 -5.13zm51.38 0l53.23 0 0 5.13 -54.02 0c0.48,-1.64 0.75,-3.36 0.79,-5.13zm-274.22 -17.9l178.79 0c-0.88,0.48 -1.71,0.99 -2.5,1.54l-176.29 0 0 -1.54zm222.84 0l11.22 0c0.35,0.52 0.75,1.03 1.19,1.54l-12.41 0 0 -1.54zm39.85 0l40.7 0 0 1.54 -38.07 0c-0.81,-0.52 -1.68,-1.04 -2.63,-1.54zm-213.79 6.11l122.62 0c-0.37,0.49 -0.71,1.01 -1.02,1.54l-121.6 0 0 -1.54zm142.15 0l13.88 0 0 1.54 -15.78 0c0.56,-0.57 1.2,-1.08 1.9,-1.54zm31.79 0l18.13 0c0.91,0.53 1.91,1.04 2.99,1.54l-21.12 0 0 -1.54zm47.76 0l53.31 0 0 1.54 -52.2 0c-0.33,-0.52 -0.7,-1.03 -1.11,-1.54z"></path>
   </g>
   <g>
    <path class="fil1" d="M62.35 83.02l0 -10.29c0,-3.92 -2.62,-5.2 -5.59,-5.2 -2.2,0 -3.99,0.68 -4.91,1.19l0.62 1.54c0.9,-0.44 2.32,-1.01 3.87,-1.01 2.05,0 3.54,0.72 3.54,3.19l0 0.98c-4.97,0.5 -8.95,1.75 -8.95,6 0,2.92 1.93,4.73 6.09,4.73 2.23,0 4.11,-0.44 5.33,-1.13zm-2.47 -0.92c-0.66,0.36 -1.64,0.54 -2.65,0.54 -2.38,0 -3.8,-0.96 -3.8,-3.28 0,-3.24 2.4,-4.1 6.45,-4.6l0 7.34zm17.43 1.76l0 -11.57c0,-2.29 -1.31,-4.76 -5.77,-4.76 -2.56,0 -4.43,0.45 -5.86,1.13l0 15.2 2.61 0 0 -14.07c0.84,-0.36 1.55,-0.57 3.04,-0.57 2.73,0 3.36,1.64 3.36,3.13l0 11.51 2.62 0zm6.12 0l0 -23.35 -2.62 0 0 23.35 2.62 0zm14.16 -0.84l0 -10.29c0,-3.92 -2.62,-5.2 -5.59,-5.2 -2.2,0 -3.99,0.68 -4.91,1.19l0.62 1.54c0.9,-0.44 2.32,-1.01 3.87,-1.01 2.05,0 3.54,0.72 3.54,3.19l0 0.98c-4.97,0.5 -8.95,1.75 -8.95,6 0,2.92 1.93,4.73 6.09,4.73 2.23,0 4.11,-0.44 5.33,-1.13zm-2.47 -0.92c-0.66,0.36 -1.64,0.54 -2.65,0.54 -2.38,0 -3.8,-0.96 -3.8,-3.28 0,-3.24 2.4,-4.1 6.45,-4.6l0 7.34zm17.22 2.08l0 -15.52c-0.92,-0.6 -2.53,-1.13 -4.76,-1.13 -4.82,0 -7.29,3.51 -7.29,8.59 0,4.88 2.47,7.91 6.31,7.91 1.4,0 2.5,-0.26 3.21,-0.68l0 1.13c0,2.41 -1.13,4.19 -4.07,4.19 -1.43,0 -2.83,-0.44 -3.72,-0.95l-0.81 1.76c1.08,0.65 2.86,1.1 4.97,1.1 3.84,0 6.16,-2.35 6.16,-6.4zm-2.53 -2.35c-0.63,0.39 -1.52,0.66 -2.53,0.66 -3.06,0 -4.4,-2.32 -4.4,-6.46 0,-4.22 1.4,-6.92 4.64,-6.92 0.92,0 1.69,0.11 2.29,0.44l0 12.28zm17.78 -6.45c0.06,-5.35 -2.26,-7.85 -6.09,-7.85 -3.78,0 -6.46,2.82 -6.46,8.27 0,5.71 2.95,8.35 7.14,8.35 2.17,0 3.87,-0.5 4.85,-1.1l-0.69 -1.72c-0.83,0.47 -2.14,0.92 -3.95,0.92 -2.89,0 -4.58,-1.78 -4.88,-5.41l10.08 -1.46zm-2.5 -1.1l-7.67 1.16c-0.06,-4.34 1.67,-6.22 3.99,-6.22 2.29,0 3.68,1.43 3.68,5.06zm16.84 9.58l0 -11.57c0,-2.29 -1.31,-4.76 -5.77,-4.76 -2.56,0 -4.43,0.45 -5.86,1.13l0 15.2 2.62 0 0 -14.07c0.83,-0.36 1.54,-0.57 3.03,-0.57 2.73,0 3.36,1.64 3.36,3.13l0 11.51 2.62 0zm15.4 -8.3c0,-4.85 -2.53,-7.94 -6.21,-7.94 -1.58,0 -2.47,0.33 -3.28,0.74l0 -7.85 -2.58 0 0 22.51c0.95,0.63 2.61,1.13 4.78,1.13 4.76,0 7.29,-3.45 7.29,-8.59zm-2.62 0.09c0,4.04 -1.3,6.81 -4.61,6.81 -0.83,0 -1.66,-0.09 -2.26,-0.39l0 -12.28c0.75,-0.42 1.43,-0.63 2.62,-0.63 3.03,0 4.25,2.98 4.25,6.49zm15.94 7.37l0 -10.29c0,-3.92 -2.61,-5.2 -5.59,-5.2 -2.2,0 -3.98,0.68 -4.9,1.19l0.62 1.54c0.89,-0.44 2.32,-1.01 3.87,-1.01 2.05,0 3.53,0.72 3.53,3.19l0 0.98c-4.96,0.5 -8.95,1.75 -8.95,6 0,2.92 1.94,4.73 6.1,4.73 2.23,0 4.1,-0.44 5.32,-1.13zm-2.47 -0.92c-0.65,0.36 -1.63,0.54 -2.64,0.54 -2.38,0 -3.81,-0.96 -3.81,-3.28 0,-3.24 2.41,-4.1 6.45,-4.6l0 7.34zm17.13 0.8l0 -15.07 -2.61 0 0 13.85c-0.75,0.45 -1.64,0.66 -2.89,0.66 -2.2,0 -3.21,-1.43 -3.21,-3.3l0 -11.21 -2.62 0 0 11.12c0,3.21 1.67,5.23 5.68,5.23 2.59,0 4.46,-0.59 5.65,-1.28z"></path>
    <path class="fil1" d="M26.73 6.45l171.7 0 0.23 0.6c0.44,-0.2 0.91,-0.4 1.39,-0.6l25.93 0c0.34,0.46 0.63,0.97 0.85,1.54l-200.1 0 0 -1.54zm217.56 0l10.17 0c-0.12,0.5 -0.23,1.02 -0.32,1.54l-9.47 0c-0.12,-0.53 -0.24,-1.04 -0.38,-1.54zm29.37 0l16.15 0c0.16,0.12 0.32,0.24 0.47,0.36l0.15 -0.36 39.68 0 0 1.54 -57.16 0c0.17,-0.55 0.41,-1.07 0.71,-1.54zm-192.03 42.34l111.24 0c0.29,0.53 0.61,1.05 0.95,1.54l-112.19 0 0 -1.54zm135.07 0l7.58 0c-1.15,0.22 -2.43,0.33 -3.79,0.33 -1.37,0 -2.63,-0.11 -3.79,-0.33zm28.69 0l9.28 0 -0.62 1.54 -8.66 0 0 -1.54zm48.63 0l45.41 0 0 1.54 -46.45 0c0.37,-0.5 0.72,-1.01 1.04,-1.54zm-270.2 -3.06l167.75 0c0.16,0.53 0.35,1.05 0.57,1.54l-168.32 0 0 -1.54zm187.05 0l16.61 0 0 1.54 -14.81 0c-0.68,-0.43 -1.28,-0.94 -1.8,-1.54zm34.52 0l10.51 0 -0.62 1.54 -9.89 0 0 -1.54zm18.36 0l8.92 0c-1.09,0.45 -2.35,0.69 -3.73,0.69 -1.8,0 -3.56,-0.26 -5.19,-0.69zm31.76 0l31.69 0 0 1.54 -32.36 0c0.25,-0.5 0.47,-1.01 0.67,-1.54zm-295.51 -21.39l196.9 0c-0.56,0.49 -1.09,1.01 -1.59,1.54l-195.31 0 0 -1.54zm222.66 0l4.82 0 0 1.54 -10.84 0c1.77,-0.67 3.79,-1.16 6.02,-1.54zm22.73 0l13.89 0c0.58,0.53 1.21,1.04 1.9,1.54l-15.79 0 0 -1.54zm44.61 0l13.39 0 0 1.54 -11.63 0c-0.54,-0.52 -1.12,-1.03 -1.76,-1.54zm-194.03 9.9l95.06 0c-0.24,1.13 -0.39,2.33 -0.44,3.59l-94.62 0 0 -3.59zm112.9 0l18.61 0 0 3.59 -19 0c0.01,-1.32 0.15,-2.51 0.39,-3.59zm36.52 0l30.21 0c0.83,1.04 1.3,2.22 1.47,3.59l-31.68 0 0 -3.59zm50.98 0l46.9 0 0 3.59 -46.51 0c-0.03,-1.23 -0.15,-2.43 -0.39,-3.59zm-240.2 -18.04l161.29 0c-4.77,0.83 -9.19,1.97 -13.01,3.59l-148.28 0 0 -3.59zm189.22 0l8.98 0c0.29,1.22 0.73,2.42 1.34,3.59l-10.32 0 0 -3.59zm30.18 0l71.62 0 0 3.59 -65.03 0c-0.35,-0.16 -0.71,-0.32 -1.08,-0.47 -2.22,-0.95 -4.09,-1.95 -5.51,-3.12zm-187.79 -6.84l139.46 0c0.1,0.48 0.18,0.99 0.21,1.54l-139.67 0 0 -1.54zm157.15 0l9.03 0c-0.05,0.51 -0.09,1.02 -0.1,1.54l-8.71 0c-0.06,-0.53 -0.14,-1.04 -0.22,-1.54zm27.73 0l72.93 0 0 1.54 -72.95 0c-0.01,-0.22 -0.02,-0.43 -0.02,-0.66 0,-0.3 0.01,-0.59 0.04,-0.88z"></path>
   </g>
  </g>
 </g>
</svg>
